<?xml version="1.0" encoding="UTF-8" standalone="no"?>
<!-- Created with Inkscape (http://www.inkscape.org/) -->

<svg
   xmlns:dc="http://purl.org/dc/elements/1.1/"
   xmlns:cc="http://creativecommons.org/ns#"
   xmlns:rdf="http://www.w3.org/1999/02/22-rdf-syntax-ns#"
   xmlns:svg="http://www.w3.org/2000/svg"
   xmlns="http://www.w3.org/2000/svg"
   xmlns:sodipodi="http://sodipodi.sourceforge.net/DTD/sodipodi-0.dtd"
   xmlns:inkscape="http://www.inkscape.org/namespaces/inkscape"
   width="210mm"
   height="297mm"
   viewBox="0 0 744.09448819 1052.3622047"
   id="svg5677"
   version="1.1"
   inkscape:version="0.91 r13725"
   sodipodi:docname="tail.svg">
  <defs
     id="defs5679" />
  <sodipodi:namedview
     id="base"
     pagecolor="#ffffff"
     bordercolor="#666666"
     borderopacity="1.0"
     inkscape:pageopacity="0.0"
     inkscape:pageshadow="2"
     inkscape:zoom="0.5"
     inkscape:cx="-258.28572"
     inkscape:cy="520"
     inkscape:document-units="px"
     inkscape:current-layer="layer1"
     showgrid="false"
     inkscape:window-width="1366"
     inkscape:window-height="715"
     inkscape:window-x="-8"
     inkscape:window-y="-8"
     inkscape:window-maximized="1" />
  <metadata
     id="metadata5682">
    <rdf:RDF>
      <cc:Work
         rdf:about="">
        <dc:format>image/svg+xml</dc:format>
        <dc:type
           rdf:resource="http://purl.org/dc/dcmitype/StillImage" />
        <dc:title />
      </cc:Work>
    </rdf:RDF>
  </metadata>
  <g
     inkscape:label="Capa 1"
     inkscape:groupmode="layer"
     id="layer1">
    <path
       style="fill:#f67395;fill-opacity:1;stroke:#e45d7d;stroke-width:4.05000019;stroke-opacity:1"
       d="M 398.56569,1049.6797 C 330.09081,1046.2158 278.23727,1033.5983 224.41562,1007.3038 122.76732,957.64365 39.74614,852.29974 13.68034,739.90598 5.466208,704.48744 5.323648,634.09073 13.39522,599.28551 26.072116,544.62364 63.052432,484.13219 100.67603,456.51404 c 36.87282,-27.06721 53.53145,-32.17369 104.19436,-31.93937 l 45.25502,0.20898 41.81998,20.5868 c 65.61615,32.30102 103.2618,67.16496 116.73534,108.10956 6.59315,20.03594 6.86969,99.01126 0.42849,122.41847 -14.84448,53.94585 -100.03938,107.49615 -161.008,101.20367 -39.3114,-4.05728 -71.8248,-30.50922 -91.12224,-74.13427 -10.34532,-23.38729 -10.82031,-52.8538 -1.37578,-85.34185 13.96812,-48.04863 33.30638,-72.8514 53.29304,-68.35209 13.35003,3.00526 49.28309,28.22274 52.62506,36.93169 1.26003,3.28367 -7.92106,23.06541 -20.44715,44.05583 -12.50365,20.95293 -22.73395,40.90452 -22.73395,44.33698 0,9.16709 28.22892,26.78281 42.91891,26.78281 6.9788,0 17.4849,-3.77266 23.34696,-8.38375 12.69617,-9.98682 41.21442,-57.58606 50.06617,-83.56453 5.76266,-16.91248 5.72216,-20.33612 -0.47304,-39.9889 -8.25155,-26.17686 -32.52643,-52.52275 -61.18423,-66.40428 -16.67265,-8.07602 -26.68935,-9.84636 -56.7,-10.02116 -42.72329,-0.24867 -63.49251,7.41506 -88.4844,32.65101 -34.341182,34.67675 -44.722298,74.50104 -42.108182,161.53661 1.55868,51.89411 3.286332,64.65816 11.851668,87.55928 14.339434,38.33918 29.602354,62.69922 57.626414,91.97327 41.46186,43.31127 96.43802,74.32827 162.77815,91.83787 29.8498,7.87853 111.59444,17.20983 185.88642,21.21943 l 56.7,3.0601 0,34.425 0,34.425 -52.65,0.4203 c -28.9575,0.2317 -78.165,-0.87 -109.35,-2.4475 z"
       id="path5640"
       inkscape:connector-curvature="0" />
    <rect
       style="fill:#f67395;fill-opacity:1;stroke:none;stroke-opacity:1"
       id="rect3351"
       width="192"
       height="72"
       x="556"
       y="980.36218" />
  </g>
</svg>
